<mxfile host="app.diagrams.net" agent="Mozilla/5.0 (Macintosh; Intel Mac OS X 10_15_7) AppleWebKit/605.1.15 (KHTML, like Gecko) Version/17.6 Safari/605.1.15" version="24.7.17">
  <diagram name="Page-1" id="bk69LS6aij5u1gvpArmT">
    <mxGraphModel dx="1242" dy="827" grid="1" gridSize="10" guides="1" tooltips="1" connect="1" arrows="1" fold="1" page="1" pageScale="1" pageWidth="850" pageHeight="1100" background="#000000" math="0" shadow="0">
      <root>
        <mxCell id="0" />
        <mxCell id="1" parent="0" />
        <mxCell id="LmIuQ4Fq90NzdA1QMdLT-2" value="" style="sketch=0;outlineConnect=0;dashed=0;verticalLabelPosition=bottom;verticalAlign=top;align=center;html=1;fontSize=12;fontStyle=0;aspect=fixed;pointerEvents=1;shape=mxgraph.aws4.bucket;labelBackgroundColor=none;labelBorderColor=#7a7a7a;" parent="1" vertex="1">
          <mxGeometry x="390" y="253.5" width="100" height="104" as="geometry" />
        </mxCell>
        <mxCell id="LmIuQ4Fq90NzdA1QMdLT-1" value="PostgreSQL Database" style="strokeWidth=2;html=1;shape=mxgraph.flowchart.database;whiteSpace=wrap;" parent="1" vertex="1">
          <mxGeometry x="1240" y="440" width="100" height="100" as="geometry" />
        </mxCell>
        <UserObject label="HTML&lt;div&gt;&amp;nbsp; Team Record&lt;/div&gt;" tooltip="HTML" id="LmIuQ4Fq90NzdA1QMdLT-3">
          <mxCell style="shape=internalStorage;whiteSpace=wrap;html=1;dx=15;dy=15;rounded=1;arcSize=8;strokeWidth=2;labelBackgroundColor=none;fontColor=default;" parent="1" vertex="1">
            <mxGeometry x="40" y="320" width="100" height="70" as="geometry" />
          </mxCell>
        </UserObject>
        <mxCell id="LmIuQ4Fq90NzdA1QMdLT-4" value="HTML&amp;nbsp;&lt;div&gt;&amp;nbsp; Player Salary&lt;/div&gt;" style="shape=internalStorage;whiteSpace=wrap;html=1;dx=15;dy=15;rounded=1;arcSize=8;strokeWidth=2;labelBackgroundColor=none;fontColor=default;" parent="1" vertex="1">
          <mxGeometry x="40" y="425" width="100" height="70" as="geometry" />
        </mxCell>
        <mxCell id="LmIuQ4Fq90NzdA1QMdLT-5" value="HTML&lt;div&gt;&amp;nbsp; Team Payroll&lt;/div&gt;" style="shape=internalStorage;whiteSpace=wrap;html=1;dx=15;dy=15;rounded=1;arcSize=8;strokeWidth=2;labelBackgroundColor=none;fontColor=default;" parent="1" vertex="1">
          <mxGeometry x="40" y="520" width="100" height="70" as="geometry" />
        </mxCell>
        <mxCell id="LmIuQ4Fq90NzdA1QMdLT-6" value="Game&lt;div&gt;CSV&lt;/div&gt;" style="shape=internalStorage;whiteSpace=wrap;html=1;dx=15;dy=15;rounded=1;arcSize=8;strokeWidth=2;labelBackgroundColor=none;fontColor=default;" parent="1" vertex="1">
          <mxGeometry x="730" y="280" width="120" height="70" as="geometry" />
        </mxCell>
        <mxCell id="LmIuQ4Fq90NzdA1QMdLT-7" value="" style="shape=singleArrow;direction=south;whiteSpace=wrap;html=1;labelBackgroundColor=none;fontColor=default;" parent="1" vertex="1">
          <mxGeometry x="425" y="370" width="30" height="70" as="geometry" />
        </mxCell>
        <mxCell id="LmIuQ4Fq90NzdA1QMdLT-9" value="Game Plays&lt;div&gt;CSV&lt;/div&gt;" style="shape=internalStorage;whiteSpace=wrap;html=1;dx=15;dy=15;rounded=1;arcSize=8;strokeWidth=2;labelBackgroundColor=none;fontColor=default;" parent="1" vertex="1">
          <mxGeometry x="730" y="470" width="120" height="70" as="geometry" />
        </mxCell>
        <mxCell id="LmIuQ4Fq90NzdA1QMdLT-10" value="Game Shifts&lt;div&gt;CSV&lt;/div&gt;" style="shape=internalStorage;whiteSpace=wrap;html=1;dx=15;dy=15;rounded=1;arcSize=8;strokeWidth=2;labelBackgroundColor=none;fontColor=default;" parent="1" vertex="1">
          <mxGeometry x="730" y="380" width="120" height="70" as="geometry" />
        </mxCell>
        <mxCell id="LmIuQ4Fq90NzdA1QMdLT-11" value="Game Skater&amp;nbsp;&lt;div&gt;Stats&lt;/div&gt;&lt;div&gt;CSV&lt;/div&gt;" style="shape=internalStorage;whiteSpace=wrap;html=1;dx=15;dy=15;rounded=1;arcSize=8;strokeWidth=2;labelBackgroundColor=none;fontColor=default;" parent="1" vertex="1">
          <mxGeometry x="730" y="560" width="120" height="70" as="geometry" />
        </mxCell>
        <mxCell id="LmIuQ4Fq90NzdA1QMdLT-18" value="Read csv and insert into PSQL data table" style="whiteSpace=wrap;html=1;aspect=fixed;labelBackgroundColor=none;fontColor=default;" parent="1" vertex="1">
          <mxGeometry x="400" y="450" width="80" height="80" as="geometry" />
        </mxCell>
        <mxCell id="LmIuQ4Fq90NzdA1QMdLT-19" value="PostgreSQL&amp;nbsp;&lt;div&gt;Database&lt;/div&gt;" style="shape=datastore;whiteSpace=wrap;html=1;labelBackgroundColor=none;fontColor=default;" parent="1" vertex="1">
          <mxGeometry x="390" y="645" width="130" height="150" as="geometry" />
        </mxCell>
        <mxCell id="LmIuQ4Fq90NzdA1QMdLT-20" value="" style="shape=singleArrow;direction=south;whiteSpace=wrap;html=1;labelBackgroundColor=none;fontColor=default;" parent="1" vertex="1">
          <mxGeometry x="425" y="540" width="30" height="90" as="geometry" />
        </mxCell>
        <mxCell id="LmIuQ4Fq90NzdA1QMdLT-21" value="" style="shape=curlyBracket;whiteSpace=wrap;html=1;rounded=1;flipH=1;labelPosition=right;verticalLabelPosition=middle;align=left;verticalAlign=middle;labelBackgroundColor=none;fontColor=default;" parent="1" vertex="1">
          <mxGeometry x="150" y="335" width="80" height="250" as="geometry" />
        </mxCell>
        <mxCell id="LmIuQ4Fq90NzdA1QMdLT-22" value="Scrape and insert into PSQL DB" style="shape=ext;double=1;rounded=1;whiteSpace=wrap;html=1;labelBackgroundColor=none;fontColor=default;" parent="1" vertex="1">
          <mxGeometry x="210" y="680" width="120" height="80" as="geometry" />
        </mxCell>
        <mxCell id="LmIuQ4Fq90NzdA1QMdLT-23" value="" style="shape=singleArrow;whiteSpace=wrap;html=1;labelBackgroundColor=none;fontColor=default;" parent="1" vertex="1">
          <mxGeometry x="340" y="705" width="30" height="20" as="geometry" />
        </mxCell>
        <mxCell id="LmIuQ4Fq90NzdA1QMdLT-27" value="" style="shape=curlyBracket;whiteSpace=wrap;html=1;rounded=1;labelPosition=left;verticalLabelPosition=middle;align=right;verticalAlign=middle;size=0.5;labelBackgroundColor=none;fontColor=default;" parent="1" vertex="1">
          <mxGeometry x="670" y="320" width="40" height="280" as="geometry" />
        </mxCell>
        <mxCell id="LmIuQ4Fq90NzdA1QMdLT-28" value="Download to AWS S3 Bucket" style="shape=ext;double=1;rounded=1;whiteSpace=wrap;html=1;labelBackgroundColor=none;fontColor=default;" parent="1" vertex="1">
          <mxGeometry x="540" y="410" width="120" height="80" as="geometry" />
        </mxCell>
        <mxCell id="LmIuQ4Fq90NzdA1QMdLT-29" value="" style="edgeStyle=segmentEdgeStyle;endArrow=classic;html=1;curved=0;rounded=0;endSize=8;startSize=8;exitX=0.5;exitY=0;exitDx=0;exitDy=0;labelBackgroundColor=none;fontColor=default;" parent="1" source="LmIuQ4Fq90NzdA1QMdLT-28" edge="1">
          <mxGeometry width="50" height="50" relative="1" as="geometry">
            <mxPoint x="600" y="320" as="sourcePoint" />
            <mxPoint x="500" y="320" as="targetPoint" />
            <Array as="points">
              <mxPoint x="600" y="320" />
            </Array>
          </mxGeometry>
        </mxCell>
        <mxCell id="LmIuQ4Fq90NzdA1QMdLT-30" value="" style="edgeStyle=segmentEdgeStyle;endArrow=classic;html=1;curved=0;rounded=0;endSize=8;startSize=8;" parent="1" source="LmIuQ4Fq90NzdA1QMdLT-21" edge="1">
          <mxGeometry width="50" height="50" relative="1" as="geometry">
            <mxPoint x="250" y="460" as="sourcePoint" />
            <mxPoint x="280" y="660" as="targetPoint" />
          </mxGeometry>
        </mxCell>
      </root>
    </mxGraphModel>
  </diagram>
</mxfile>
